<svg width="48" height="48" viewBox="0 0 48 48" fill="none" xmlns="http://www.w3.org/2000/svg">
<g clip-path="url(#clip0_23_571)">
<path d="M24.0005 35.9996C30.6283 35.9996 36.001 30.6266 36.001 23.9988C36.001 17.371 30.6283 11.998 24.0005 11.998C17.3727 11.998 12 17.371 12 23.9988C12 30.6266 17.3727 35.9996 24.0005 35.9996Z" fill="white"/>
<path d="M13.6076 30.002L3.21638 12.0039C1.10942 15.6522 0 19.7907 0 24.0039C0 28.2171 1.10891 32.3557 3.21562 36.0039C5.32233 39.6522 8.3525 42.6818 12.0013 44.7875C15.65 46.8932 19.7891 48.0014 24.002 48.0001L34.3932 30.002V29.9992C33.3407 31.8245 31.8261 33.3403 30.0019 34.3943C28.1776 35.4483 26.1081 36.0033 24.0012 36.0036C21.8944 36.0039 19.8247 35.4495 18.0001 34.3961C16.1756 33.3426 14.6606 31.8273 13.6076 30.0025V30.002Z" fill="#229342"/>
<path d="M34.3928 30.0011L24.0018 47.9993C28.2148 48 32.3536 46.8911 36.0021 44.7849C39.6506 42.6787 42.6803 39.6488 44.7865 36C46.8926 32.3513 48.001 28.2124 48.0003 23.9995C47.9996 19.7866 46.8897 15.648 44.7822 12H24.0001L23.9976 12.0018C26.1044 12.0008 28.1743 12.5545 29.9992 13.6073C31.8242 14.6603 33.3395 16.1749 34.3933 17.9994C35.447 19.8238 36.0017 21.8936 36.0016 24.0004C36.0016 26.1073 35.4468 28.177 34.393 30.0014L34.3928 30.0011Z" fill="#FBC116"/>
<path d="M24.0005 33.5019C29.2475 33.5019 33.5009 29.2485 33.5009 24.0012C33.5009 18.754 29.2475 14.5007 24.0005 14.5007C18.7535 14.5007 14.5 18.7542 14.5 24.0012C14.5 29.2482 18.7535 33.5019 24.0005 33.5019Z" fill="#1A73E8"/>
<path d="M24.0002 12.0008H44.7823C42.6763 8.352 39.6469 5.32183 35.9984 3.21512C32.35 1.10855 28.2113 -0.000319767 23.9984 6.91691e-08C19.7855 0.000252038 15.6469 1.10968 11.9989 3.21689C8.35079 5.32398 5.32172 8.35442 3.21631 12.0035L13.6075 30.0016L13.6103 30.0032C12.556 28.1791 12.0006 26.1095 11.9999 24.0026C11.9992 21.8958 12.5533 19.8259 13.6065 18.0011C14.6595 16.1764 16.1748 14.661 17.9993 13.6078C19.8238 12.5546 21.8937 12 24.0007 12.0005L24.0002 12.0008Z" fill="#E33B2E"/>
</g>
<defs>
<clipPath id="clip0_23_571">
<rect width="48" height="48" fill="white"/>
</clipPath>
</defs>
</svg>
