<svg width="48" height="48" viewBox="0 0 48 48" fill="none" xmlns="http://www.w3.org/2000/svg">
<g clip-path="url(#clip0_23_578)">
<path d="M43.3309 35.7188C42.6872 36.0532 42.0234 36.3476 41.3434 36.6C39.19 37.4015 36.9098 37.808 34.6121 37.8C25.7434 37.8 18.0184 31.7063 18.0184 23.8688C18.0299 22.8193 18.3209 21.7918 18.8613 20.8921C19.4018 19.9925 20.1722 19.253 21.0934 18.75C13.0684 19.0875 11.0059 27.45 11.0059 32.3438C11.0059 46.2188 23.7746 47.6062 26.5309 47.6062C28.0121 47.6062 30.2434 47.175 31.5934 46.7438L31.8371 46.6687C37.0035 44.8833 41.4078 41.3916 44.3246 36.7688C44.4094 36.6283 44.4458 36.4639 44.4282 36.3008C44.4106 36.1377 44.34 35.9848 44.2272 35.8657C44.1144 35.7465 43.9657 35.6676 43.8038 35.6411C43.6419 35.6146 43.4758 35.6418 43.3309 35.7188Z" fill="url(#paint0_linear_23_578)"/>
<path opacity="0.35" d="M43.3309 35.7188C42.6872 36.0532 42.0234 36.3476 41.3434 36.6C39.19 37.4015 36.9098 37.808 34.6121 37.8C25.7434 37.8 18.0184 31.7063 18.0184 23.8688C18.0299 22.8193 18.3209 21.7918 18.8613 20.8921C19.4018 19.9925 20.1722 19.253 21.0934 18.75C13.0684 19.0875 11.0059 27.45 11.0059 32.3438C11.0059 46.2188 23.7746 47.6062 26.5309 47.6062C28.0121 47.6062 30.2434 47.175 31.5934 46.7438L31.8371 46.6687C37.0035 44.8833 41.4078 41.3916 44.3246 36.7688C44.4094 36.6283 44.4458 36.4639 44.4282 36.3008C44.4106 36.1377 44.34 35.9848 44.2272 35.8657C44.1144 35.7465 43.9657 35.6676 43.8038 35.6411C43.6419 35.6146 43.4758 35.6418 43.3309 35.7188Z" fill="url(#paint1_radial_23_578)"/>
<path d="M19.8191 45.2438C18.1501 44.2072 16.7034 42.8497 15.5628 41.2501C14.2603 39.4673 13.3638 37.4211 12.936 35.255C12.5083 33.089 12.5598 30.8555 13.0869 28.7115C13.614 26.5675 14.6039 24.5647 15.9871 22.8439C17.3704 21.123 19.1135 19.7257 21.0941 18.75C21.6941 18.4688 22.6878 17.9813 24.0191 18C24.9558 18.0073 25.8782 18.2311 26.7142 18.6539C27.5501 19.0768 28.2769 19.6872 28.8378 20.4376C29.5922 21.4521 30.0058 22.6796 30.0191 23.9438C30.0191 23.9063 34.6128 9.0188 15.0191 9.0188C6.78781 9.0188 0.0190622 16.8188 0.0190622 23.6813C-0.0136781 27.3063 0.761333 30.8932 2.28781 34.1813C4.7877 39.5045 9.15507 43.7245 14.5609 46.0403C19.9667 48.3561 26.0346 48.6064 31.6128 46.7438C29.6585 47.361 27.5935 47.5466 25.5605 47.2876C23.5275 47.0286 21.5749 46.3313 19.8378 45.2438H19.8191Z" fill="url(#paint2_linear_23_578)"/>
<path opacity="0.41" d="M19.8191 45.2438C18.1501 44.2072 16.7034 42.8497 15.5628 41.2501C14.2603 39.4673 13.3638 37.4211 12.936 35.255C12.5083 33.089 12.5598 30.8555 13.0869 28.7115C13.614 26.5675 14.6039 24.5647 15.9871 22.8439C17.3704 21.123 19.1135 19.7257 21.0941 18.75C21.6941 18.4688 22.6878 17.9813 24.0191 18C24.9558 18.0073 25.8782 18.2311 26.7142 18.6539C27.5501 19.0768 28.2769 19.6872 28.8378 20.4376C29.5922 21.4521 30.0058 22.6796 30.0191 23.9438C30.0191 23.9063 34.6128 9.0188 15.0191 9.0188C6.78781 9.0188 0.0190622 16.8188 0.0190622 23.6813C-0.0136781 27.3063 0.761333 30.8932 2.28781 34.1813C4.7877 39.5045 9.15507 43.7245 14.5609 46.0403C19.9667 48.3561 26.0346 48.6064 31.6128 46.7438C29.6585 47.361 27.5935 47.5466 25.5605 47.2876C23.5275 47.0286 21.5749 46.3313 19.8378 45.2438H19.8191Z" fill="url(#paint3_radial_23_578)"/>
<path d="M28.575 27.9C28.4062 28.0875 27.9375 28.3687 27.9375 28.95C27.9375 29.4375 28.2562 29.925 28.8375 30.3187C31.5187 32.1937 36.6 31.9313 36.6187 31.9313C38.6176 31.9299 40.5795 31.3925 42.3 30.375C44.0321 29.3619 45.4694 27.9136 46.4692 26.1737C47.469 24.4339 47.9967 22.4629 48 20.4562C48.0563 16.2562 46.5 13.4625 45.8812 12.225C41.8875 4.4625 33.3188 1.17495e-07 24 1.17495e-07C17.6929 -0.000623545 11.639 2.48156 7.14766 6.9097C2.65636 11.3378 0.0886943 17.356 0 23.6625C0.09375 16.8187 6.9 11.2875 15 11.2875C15.6562 11.2875 19.4062 11.3437 22.875 13.1625C25.312 14.3735 27.33 16.2871 28.6687 18.6562C29.8125 20.6438 30.0187 23.175 30.0187 24.1875C30.0187 25.2 29.5125 26.6812 28.5562 27.9187L28.575 27.9Z" fill="url(#paint4_radial_23_578)"/>
<path d="M28.575 27.9C28.4062 28.0875 27.9375 28.3687 27.9375 28.95C27.9375 29.4375 28.2562 29.925 28.8375 30.3187C31.5187 32.1937 36.6 31.9313 36.6187 31.9313C38.6176 31.9299 40.5795 31.3925 42.3 30.375C44.0321 29.3619 45.4694 27.9136 46.4692 26.1737C47.469 24.4339 47.9967 22.4629 48 20.4562C48.0563 16.2562 46.5 13.4625 45.8812 12.225C41.8875 4.4625 33.3188 1.17495e-07 24 1.17495e-07C17.6929 -0.000623545 11.639 2.48156 7.14766 6.9097C2.65636 11.3378 0.0886943 17.356 0 23.6625C0.09375 16.8187 6.9 11.2875 15 11.2875C15.6562 11.2875 19.4062 11.3437 22.875 13.1625C25.312 14.3735 27.33 16.2871 28.6687 18.6562C29.8125 20.6438 30.0187 23.175 30.0187 24.1875C30.0187 25.2 29.5125 26.6812 28.5562 27.9187L28.575 27.9Z" fill="url(#paint5_radial_23_578)"/>
</g>
<defs>
<linearGradient id="paint0_linear_23_578" x1="11.0059" y1="33.1875" x2="44.4559" y2="33.1875" gradientUnits="userSpaceOnUse">
<stop stop-color="#0C59A4"/>
<stop offset="1" stop-color="#114A8B"/>
</linearGradient>
<radialGradient id="paint1_radial_23_578" cx="0" cy="0" r="1" gradientUnits="userSpaceOnUse" gradientTransform="translate(29.4746 33.4397) scale(17.8875 16.9931)">
<stop offset="0.7" stop-opacity="0"/>
<stop offset="0.9" stop-opacity="0.5"/>
<stop offset="1"/>
</radialGradient>
<linearGradient id="paint2_linear_23_578" x1="28.6316" y1="18.675" x2="7.76281" y2="41.4188" gradientUnits="userSpaceOnUse">
<stop stop-color="#1B9DE2"/>
<stop offset="0.2" stop-color="#1595DF"/>
<stop offset="0.7" stop-color="#0680D7"/>
<stop offset="1" stop-color="#0078D4"/>
</linearGradient>
<radialGradient id="paint3_radial_23_578" cx="0" cy="0" r="1" gradientUnits="userSpaceOnUse" gradientTransform="translate(13.2294 37.3007) rotate(-81.3844) scale(26.8849 21.7203)">
<stop offset="0.8" stop-opacity="0"/>
<stop offset="0.9" stop-opacity="0.5"/>
<stop offset="1"/>
</radialGradient>
<radialGradient id="paint4_radial_23_578" cx="0" cy="0" r="1" gradientUnits="userSpaceOnUse" gradientTransform="translate(4.85437 8.87175) rotate(92.2906) scale(37.9803 80.8903)">
<stop stop-color="#35C1F1"/>
<stop offset="0.1" stop-color="#34C1ED"/>
<stop offset="0.2" stop-color="#2FC2DF"/>
<stop offset="0.3" stop-color="#2BC3D2"/>
<stop offset="0.7" stop-color="#36C752"/>
</radialGradient>
<radialGradient id="paint5_radial_23_578" cx="0" cy="0" r="1" gradientUnits="userSpaceOnUse" gradientTransform="translate(45.0113 14.4937) rotate(73.7398) scale(18.2437 14.8358)">
<stop stop-color="#66EB6E"/>
<stop offset="1" stop-color="#66EB6E" stop-opacity="0"/>
</radialGradient>
<clipPath id="clip0_23_578">
<rect width="48" height="48" fill="white"/>
</clipPath>
</defs>
</svg>
