<svg width="48" height="48" viewBox="0 0 48 48" fill="none" xmlns="http://www.w3.org/2000/svg">
<g clip-path="url(#clip0_23_585)">
<g clip-path="url(#clip1_23_585)">
<path d="M44.984 16.24C43.9918 13.8526 41.9792 11.2749 40.4031 10.46C41.527 12.6364 42.3071 14.9737 42.7157 17.3889L42.7198 17.4272C40.138 10.9932 35.7614 8.39489 32.1851 2.74455C32.0042 2.45879 31.8233 2.17245 31.6471 1.87019C31.5464 1.69756 31.4657 1.54201 31.3955 1.39884C31.2472 1.11164 31.1329 0.80812 31.055 0.494432C31.0551 0.479957 31.0499 0.46595 31.0403 0.455083C31.0307 0.444216 31.0175 0.437249 31.0031 0.435513C30.9891 0.431652 30.9742 0.431652 30.9601 0.435513C30.9572 0.435513 30.9525 0.440815 30.9489 0.441994C30.9454 0.443172 30.9377 0.448475 30.9324 0.450832L30.9413 0.435513C25.2055 3.7939 23.2582 10.0099 23.0815 13.1208C20.7901 13.2779 18.5992 14.122 16.7948 15.543C16.6066 15.3836 16.4099 15.2345 16.2056 15.0963C15.6854 13.2751 15.6632 11.3477 16.1414 9.51494C14.035 10.5353 12.1633 11.9818 10.6448 13.763H10.6342C9.72923 12.6159 9.79287 8.83325 9.84471 8.04314C9.57698 8.15074 9.32142 8.28642 9.0823 8.44792C8.28338 9.0181 7.53651 9.65791 6.85045 10.3598C6.06864 11.1525 5.3546 12.0092 4.71581 12.9211V12.9246V12.9205C3.24786 15.0013 2.20656 17.3522 1.65202 19.8376L1.62138 19.9884C1.57837 20.1893 1.42341 21.1956 1.3969 21.4142C1.3969 21.4313 1.39336 21.4472 1.3916 21.4643C1.19171 22.5033 1.06785 23.5554 1.021 24.6124V24.7302C1.03109 30.4445 3.18308 35.9474 7.05216 40.1525C10.9212 44.3577 16.2262 46.9596 21.9199 47.4445C27.6136 47.9295 33.2822 46.2622 37.8067 42.772C42.3312 39.2817 45.3829 34.222 46.3592 28.5918C46.3975 28.2972 46.4287 28.0055 46.4629 27.708C46.9333 23.8204 46.4241 19.877 44.9817 16.2364L44.984 16.24ZM18.6649 34.116C18.7715 34.1673 18.8717 34.2226 18.9813 34.2716L18.9972 34.2816C18.8864 34.2285 18.7757 34.1734 18.6649 34.116ZM42.7204 17.4337V17.4119L42.7245 17.436L42.7204 17.4337Z" fill="url(#paint0_linear_23_585)"/>
<path d="M44.9842 16.2399C43.992 13.8525 41.9793 11.2748 40.4033 10.46C41.5271 12.6364 42.3072 14.9737 42.7158 17.3888V17.4106L42.72 17.4348C44.4803 22.4718 44.2258 27.9943 42.0094 32.848C39.3922 38.4636 33.0596 44.2194 23.1435 43.9366C12.432 43.6332 2.99319 35.682 1.23151 25.271C0.910398 23.629 1.23151 22.7964 1.39294 21.4619C1.17273 22.4985 1.04985 23.5534 1.02588 24.6129V24.7307C1.03597 30.445 3.18796 35.9479 7.05704 40.1531C10.9261 44.3582 16.2311 46.9601 21.9248 47.4451C27.6185 47.93 33.2871 46.2628 37.8116 42.7725C42.3361 39.2822 45.3878 34.2226 46.3641 28.5923C46.4024 28.2977 46.4336 28.0061 46.4678 27.7085C46.9381 23.821 46.429 19.8775 44.9866 16.237L44.9842 16.2399Z" fill="url(#paint1_radial_23_585)"/>
<path d="M44.9842 16.2399C43.992 13.8525 41.9793 11.2748 40.4033 10.46C41.5271 12.6364 42.3072 14.9737 42.7158 17.3888V17.4106L42.72 17.4348C44.4803 22.4718 44.2258 27.9943 42.0094 32.848C39.3922 38.4636 33.0596 44.2194 23.1435 43.9366C12.432 43.6332 2.99319 35.682 1.23151 25.271C0.910398 23.629 1.23151 22.7964 1.39294 21.4619C1.17273 22.4985 1.04985 23.5534 1.02588 24.6129V24.7307C1.03597 30.445 3.18796 35.9479 7.05704 40.1531C10.9261 44.3582 16.2311 46.9601 21.9248 47.4451C27.6185 47.93 33.2871 46.2628 37.8116 42.7725C42.3361 39.2822 45.3878 34.2226 46.3641 28.5923C46.4024 28.2977 46.4336 28.0061 46.4678 27.7085C46.9381 23.821 46.429 19.8775 44.9866 16.237L44.9842 16.2399Z" fill="url(#paint2_radial_23_585)"/>
<path d="M33.8836 18.9207C33.9331 18.9554 33.979 18.9902 34.0256 19.025C33.452 18.0078 32.7379 17.0766 31.9045 16.2587C24.8048 9.15897 30.0444 0.869064 30.9276 0.444847L30.9365 0.431885C25.2007 3.79027 23.2534 10.0062 23.0767 13.1172C23.343 13.0989 23.6069 13.0765 23.8791 13.0765C25.9141 13.0804 27.9118 13.6231 29.669 14.6494C31.4262 15.6757 32.8804 17.149 33.8836 18.9195V18.9207Z" fill="url(#paint3_radial_23_585)"/>
<path d="M23.8914 20.3407C23.8537 20.9087 21.8469 22.8678 21.1452 22.8678C14.6523 22.8678 13.5977 26.7959 13.5977 26.7959C13.8852 30.1036 16.1901 32.8292 18.9764 34.2669C19.1036 34.3328 19.2327 34.3924 19.3617 34.4507C19.5852 34.5497 19.8087 34.6412 20.0322 34.7252C20.9885 35.0636 21.99 35.2569 23.0035 35.2985C34.3867 35.8323 36.5902 21.6882 28.3763 17.5816C30.3139 17.3295 32.2761 17.8059 33.8823 18.9184C32.8791 17.1479 31.4249 15.6747 29.6677 14.6484C27.9105 13.6221 25.9128 13.0794 23.8779 13.0754C23.6068 13.0754 23.3417 13.0978 23.0754 13.1161C20.784 13.2732 18.5931 14.1173 16.7887 15.5383C17.1369 15.8329 17.5299 16.2264 18.3577 17.0425C19.9073 18.5691 23.8814 20.1504 23.8902 20.336L23.8914 20.3407Z" fill="url(#paint4_radial_23_585)"/>
<path d="M23.8914 20.3407C23.8537 20.9087 21.8469 22.8678 21.1452 22.8678C14.6523 22.8678 13.5977 26.7959 13.5977 26.7959C13.8852 30.1036 16.1901 32.8292 18.9764 34.2669C19.1036 34.3328 19.2327 34.3924 19.3617 34.4507C19.5852 34.5497 19.8087 34.6412 20.0322 34.7252C20.9885 35.0636 21.99 35.2569 23.0035 35.2985C34.3867 35.8323 36.5902 21.6882 28.3763 17.5816C30.3139 17.3295 32.2761 17.8059 33.8823 18.9184C32.8791 17.1479 31.4249 15.6747 29.6677 14.6484C27.9105 13.6221 25.9128 13.0794 23.8779 13.0754C23.6068 13.0754 23.3417 13.0978 23.0754 13.1161C20.784 13.2732 18.5931 14.1173 16.7887 15.5383C17.1369 15.8329 17.5299 16.2264 18.3577 17.0425C19.9073 18.5691 23.8814 20.1504 23.8902 20.336L23.8914 20.3407Z" fill="url(#paint5_radial_23_585)"/>
<path d="M15.7252 14.7847C15.9102 14.9025 16.0628 15.005 16.1965 15.0975C15.6763 13.2763 15.6541 11.3488 16.1323 9.51611C14.0259 10.5365 12.1542 11.983 10.6357 13.7642C10.7471 13.7612 14.0595 13.7017 15.7252 14.7847Z" fill="url(#paint6_radial_23_585)"/>
<path d="M1.22721 25.272C2.98948 35.683 12.4277 43.6371 23.1392 43.9376C33.0553 44.218 39.3891 38.4617 42.0051 32.849C44.2215 27.9953 44.476 22.4728 42.7157 17.4358V17.414C42.7157 17.3969 42.7121 17.3869 42.7157 17.3922L42.7198 17.4305C43.5299 22.7197 40.8397 27.8415 36.6334 31.3118L36.6205 31.3413C28.4248 38.0168 20.5827 35.3678 18.9978 34.2872C18.887 34.2342 18.7762 34.179 18.6655 34.1217C13.8877 31.838 11.9134 27.4874 12.3376 23.7519C11.2034 23.7687 10.0888 23.4561 9.12869 22.8522C8.16858 22.2483 7.40422 21.3789 6.92822 20.3493C8.18248 19.581 9.61261 19.1466 11.0823 19.0877C12.552 19.0287 14.0124 19.347 15.3242 20.0123C18.0281 21.2397 21.1049 21.3606 23.8969 20.3493C23.8881 20.1637 19.914 18.5818 18.3644 17.0558C17.5366 16.2397 17.1436 15.8468 16.7954 15.5516C16.6072 15.3922 16.4105 15.2431 16.2062 15.105C16.0707 15.0125 15.9181 14.9123 15.7348 14.7921C14.0692 13.7092 10.7568 13.7687 10.6472 13.7716H10.6366C9.73158 12.6245 9.79522 8.84186 9.84707 8.05176C9.57934 8.15936 9.32377 8.29504 9.08465 8.45653C8.28573 9.02671 7.53886 9.66652 6.8528 10.3685C6.06819 11.1589 5.35119 12.0136 4.70932 12.9238C3.24137 15.0046 2.20008 17.3549 1.64553 19.8403C1.63434 19.8868 0.823022 23.4338 1.22308 25.2732L1.22721 25.272Z" fill="url(#paint7_radial_23_585)"/>
<path d="M31.9043 16.2576C32.738 17.0764 33.452 18.0086 34.0254 19.0268C34.1509 19.1217 34.2682 19.2159 34.3677 19.3073C39.5449 24.0797 36.8323 30.8259 36.6302 31.3032C40.8359 27.8381 43.5238 22.7128 42.7166 17.4218C40.1336 10.982 35.7523 8.38366 32.1818 2.73332C32.001 2.44756 31.8201 2.16122 31.6439 1.85896C31.5432 1.68633 31.4624 1.53078 31.3923 1.38761C31.244 1.10041 31.1297 0.796889 31.0518 0.483201C31.0519 0.468726 31.0466 0.454719 31.0371 0.443852C31.0275 0.432985 31.0143 0.426019 30.9999 0.424282C30.9858 0.420422 30.971 0.420422 30.9569 0.424282C30.954 0.424282 30.9492 0.429585 30.9457 0.430763C30.9422 0.431942 30.9345 0.437244 30.9292 0.439601C30.046 0.858516 24.8075 9.15373 31.9073 16.2476L31.9043 16.2576Z" fill="url(#paint8_radial_23_585)"/>
<path d="M34.3668 19.3095C34.2672 19.2182 34.15 19.1239 34.0245 19.0291C33.9779 18.9943 33.932 18.9595 33.8825 18.9248C32.2763 17.8122 30.3141 17.3358 28.3765 17.5879C36.5898 21.6946 34.3863 35.8351 23.0037 35.3049C21.9902 35.2632 20.9886 35.07 20.0324 34.7316C19.8089 34.6479 19.5854 34.5564 19.3619 34.457C19.2329 34.3981 19.1038 34.3392 18.9766 34.2732L18.9925 34.2832C20.5798 35.3667 28.4195 38.014 36.6152 31.3372L36.6281 31.3078C36.8326 30.8305 39.5452 24.0843 34.3656 19.3119L34.3668 19.3095Z" fill="url(#paint9_radial_23_585)"/>
<path d="M13.5978 26.7924C13.5978 26.7924 14.6519 22.8643 21.1453 22.8643C21.847 22.8643 23.8556 20.9052 23.8915 20.3372C21.0996 21.3485 18.0228 21.2276 15.3188 20.0002C14.007 19.3349 12.5467 19.0165 11.077 19.0755C9.60724 19.1345 8.17712 19.5689 6.92285 20.3372C7.39886 21.3668 8.16322 22.2362 9.12333 22.8401C10.0834 23.444 11.1981 23.7565 12.3322 23.7398C11.9092 27.4735 13.883 31.8235 18.6601 34.1096C18.7668 34.1608 18.8669 34.2162 18.9765 34.2651C16.1879 32.8245 13.8853 30.1001 13.5978 26.7942V26.7924Z" fill="url(#paint10_radial_23_585)"/>
<path d="M44.9838 16.24C43.9916 13.8526 41.979 11.2749 40.4029 10.46C41.5268 12.6364 42.3069 14.9737 42.7155 17.3889L42.7196 17.4272C40.1377 10.9932 35.7612 8.39489 32.1849 2.74455C32.004 2.45879 31.8231 2.17245 31.6469 1.87019C31.5462 1.69756 31.4655 1.54201 31.3953 1.39884C31.247 1.11164 31.1327 0.80812 31.0548 0.494432C31.0549 0.479957 31.0497 0.46595 31.0401 0.455083C31.0305 0.444216 31.0173 0.437249 31.0029 0.435513C30.9889 0.431652 30.974 0.431652 30.9599 0.435513C30.957 0.435513 30.9523 0.440815 30.9487 0.441994C30.9452 0.443172 30.9375 0.448475 30.9322 0.450832L30.9411 0.435513C25.2053 3.7939 23.258 10.0099 23.0813 13.1208C23.3476 13.1025 23.6115 13.0801 23.8837 13.0801C25.9187 13.0841 27.9164 13.6268 29.6736 14.6531C31.4308 15.6794 32.885 17.1526 33.8882 18.9231C32.282 17.8106 30.3198 17.3342 28.3822 17.5863C36.5955 21.6929 34.392 35.8335 23.0094 35.3032C21.9959 35.2616 20.9943 35.0683 20.0381 34.7299C19.8146 34.6463 19.5911 34.5548 19.3676 34.4554C19.2386 34.3965 19.1095 34.3375 18.9823 34.2715L18.9982 34.2816C18.8874 34.2285 18.7766 34.1734 18.6659 34.116C18.7725 34.1673 18.8727 34.2226 18.9823 34.2715C16.1936 32.8304 13.8911 30.106 13.6035 26.8006C13.6035 26.8006 14.6576 22.8725 21.1511 22.8725C21.8528 22.8725 23.8614 20.9134 23.8973 20.3454C23.8885 20.1598 19.9144 18.5779 18.3648 17.0519C17.537 16.2358 17.144 15.8428 16.7958 15.5477C16.6076 15.3883 16.4109 15.2392 16.2066 15.1011C15.6863 13.2798 15.6642 11.3524 16.1424 9.51965C14.0359 10.54 12.1643 11.9866 10.6458 13.7677H10.6352C9.73021 12.6206 9.79384 8.83796 9.84569 8.04786C9.57796 8.15545 9.3224 8.29114 9.08328 8.45263C8.28435 9.02281 7.53749 9.66262 6.85142 10.3646C6.06962 11.1572 5.35558 12.0139 4.71679 12.9258C3.24884 15.0066 2.20754 17.3569 1.653 19.8423L1.62236 19.9931C1.57935 20.194 1.38668 21.2145 1.35899 21.4337C1.18276 22.4871 1.07022 23.5501 1.02197 24.6171V24.7349C1.03206 30.4492 3.18406 35.9521 7.05314 40.1572C10.9222 44.3624 16.2272 46.9643 21.9209 47.4492C27.6146 47.9342 33.2832 46.2669 37.8077 42.7767C42.3322 39.2864 45.3839 34.2267 46.3602 28.5965C46.3985 28.3019 46.4297 28.0102 46.4639 27.7127C46.9342 23.8251 46.4251 19.8817 44.9827 16.2411L44.9838 16.24Z" fill="url(#paint11_linear_23_585)"/>
</g>
</g>
<defs>
<linearGradient id="paint0_linear_23_585" x1="41.9615" y1="7.72964" x2="4.05121" y2="44.3066" gradientUnits="userSpaceOnUse">
<stop offset="0.048" stop-color="#FFF44F"/>
<stop offset="0.111" stop-color="#FFE847"/>
<stop offset="0.225" stop-color="#FFC830"/>
<stop offset="0.368" stop-color="#FF980E"/>
<stop offset="0.401" stop-color="#FF8B16"/>
<stop offset="0.462" stop-color="#FF672A"/>
<stop offset="0.534" stop-color="#FF3647"/>
<stop offset="0.705" stop-color="#E31587"/>
</linearGradient>
<radialGradient id="paint1_radial_23_585" cx="0" cy="0" r="1" gradientUnits="userSpaceOnUse" gradientTransform="translate(40.4946 5.73465) scale(47.6066 47.6066)">
<stop offset="0.129" stop-color="#FFBD4F"/>
<stop offset="0.186" stop-color="#FFAC31"/>
<stop offset="0.247" stop-color="#FF9D17"/>
<stop offset="0.283" stop-color="#FF980E"/>
<stop offset="0.403" stop-color="#FF563B"/>
<stop offset="0.467" stop-color="#FF3750"/>
<stop offset="0.71" stop-color="#F5156C"/>
<stop offset="0.782" stop-color="#EB0878"/>
<stop offset="0.86" stop-color="#E50080"/>
</radialGradient>
<radialGradient id="paint2_radial_23_585" cx="0" cy="0" r="1" gradientUnits="userSpaceOnUse" gradientTransform="translate(22.8189 25.1779) scale(47.6066 47.6066)">
<stop offset="0.3" stop-color="#960E18"/>
<stop offset="0.351" stop-color="#B11927" stop-opacity="0.74"/>
<stop offset="0.435" stop-color="#DB293D" stop-opacity="0.343"/>
<stop offset="0.497" stop-color="#F5334B" stop-opacity="0.094"/>
<stop offset="0.53" stop-color="#FF3750" stop-opacity="0"/>
</radialGradient>
<radialGradient id="paint3_radial_23_585" cx="0" cy="0" r="1" gradientUnits="userSpaceOnUse" gradientTransform="translate(28.7105 -4.87083) scale(34.4853 34.4853)">
<stop offset="0.132" stop-color="#FFF44F"/>
<stop offset="0.252" stop-color="#FFDC3E"/>
<stop offset="0.506" stop-color="#FF9D12"/>
<stop offset="0.526" stop-color="#FF980E"/>
</radialGradient>
<radialGradient id="paint4_radial_23_585" cx="0" cy="0" r="1" gradientUnits="userSpaceOnUse" gradientTransform="translate(17.5164 37.551) scale(22.6662 22.6662)">
<stop offset="0.353" stop-color="#3A8EE6"/>
<stop offset="0.472" stop-color="#5C79F0"/>
<stop offset="0.669" stop-color="#9059FF"/>
<stop offset="1" stop-color="#C139E6"/>
</radialGradient>
<radialGradient id="paint5_radial_23_585" cx="0" cy="0" r="1" gradientUnits="userSpaceOnUse" gradientTransform="translate(25.1216 21.0914) rotate(-13.5916) scale(12.0195 14.0719)">
<stop offset="0.206" stop-color="#9059FF" stop-opacity="0"/>
<stop offset="0.278" stop-color="#8C4FF3" stop-opacity="0.064"/>
<stop offset="0.747" stop-color="#7716A8" stop-opacity="0.45"/>
<stop offset="0.975" stop-color="#6E008B" stop-opacity="0.6"/>
</radialGradient>
<radialGradient id="paint6_radial_23_585" cx="0" cy="0" r="1" gradientUnits="userSpaceOnUse" gradientTransform="translate(22.2298 3.96711) scale(16.3088 16.3088)">
<stop stop-color="#FFE226"/>
<stop offset="0.121" stop-color="#FFDB27"/>
<stop offset="0.295" stop-color="#FFC82A"/>
<stop offset="0.502" stop-color="#FFA930"/>
<stop offset="0.732" stop-color="#FF7E37"/>
<stop offset="0.792" stop-color="#FF7139"/>
</radialGradient>
<radialGradient id="paint7_radial_23_585" cx="0" cy="0" r="1" gradientUnits="userSpaceOnUse" gradientTransform="translate(35.1917 -6.63854) scale(69.5834 69.5834)">
<stop offset="0.113" stop-color="#FFF44F"/>
<stop offset="0.456" stop-color="#FF980E"/>
<stop offset="0.622" stop-color="#FF5634"/>
<stop offset="0.716" stop-color="#FF3647"/>
<stop offset="0.904" stop-color="#E31587"/>
</radialGradient>
<radialGradient id="paint8_radial_23_585" cx="0" cy="0" r="1" gradientUnits="userSpaceOnUse" gradientTransform="translate(29.4085 -2.78032) rotate(83.976) scale(50.9917 33.4654)">
<stop stop-color="#FFF44F"/>
<stop offset="0.06" stop-color="#FFE847"/>
<stop offset="0.168" stop-color="#FFC830"/>
<stop offset="0.304" stop-color="#FF980E"/>
<stop offset="0.356" stop-color="#FF8B16"/>
<stop offset="0.455" stop-color="#FF672A"/>
<stop offset="0.57" stop-color="#FF3647"/>
<stop offset="0.737" stop-color="#E31587"/>
</radialGradient>
<radialGradient id="paint9_radial_23_585" cx="0" cy="0" r="1" gradientUnits="userSpaceOnUse" gradientTransform="translate(22.2295 9.85889) scale(43.4351 43.4351)">
<stop offset="0.137" stop-color="#FFF44F"/>
<stop offset="0.48" stop-color="#FF980E"/>
<stop offset="0.592" stop-color="#FF5634"/>
<stop offset="0.655" stop-color="#FF3647"/>
<stop offset="0.904" stop-color="#E31587"/>
</radialGradient>
<radialGradient id="paint10_radial_23_585" cx="0" cy="0" r="1" gradientUnits="userSpaceOnUse" gradientTransform="translate(33.4241 12.2158) scale(47.5418 47.5418)">
<stop offset="0.094" stop-color="#FFF44F"/>
<stop offset="0.231" stop-color="#FFE141"/>
<stop offset="0.509" stop-color="#FFAF1E"/>
<stop offset="0.626" stop-color="#FF980E"/>
</radialGradient>
<linearGradient id="paint11_linear_23_585" x1="41.5017" y1="7.53521" x2="9.24943" y2="39.7934" gradientUnits="userSpaceOnUse">
<stop offset="0.167" stop-color="#FFF44F" stop-opacity="0.8"/>
<stop offset="0.266" stop-color="#FFF44F" stop-opacity="0.634"/>
<stop offset="0.489" stop-color="#FFF44F" stop-opacity="0.217"/>
<stop offset="0.6" stop-color="#FFF44F" stop-opacity="0"/>
</linearGradient>
<clipPath id="clip0_23_585">
<rect width="48" height="48" fill="white"/>
</clipPath>
<clipPath id="clip1_23_585">
<rect width="46.452" height="47.982" fill="white" transform="translate(0.599609)"/>
</clipPath>
</defs>
</svg>
