<svg width="133" height="46" viewBox="0 0 133 46" fill="none" xmlns="http://www.w3.org/2000/svg">
<path d="M38.0659 25.6292C38.0659 22.6832 38.9108 20.2842 40.6006 18.4324C42.3023 16.5806 44.5433 15.6547 47.3236 15.6547C50.2477 15.6547 52.5187 16.5445 54.1365 18.3242C55.7544 20.1038 56.5633 22.5388 56.5633 25.6292C56.5633 28.7076 55.7364 31.1546 54.0826 32.9704C52.4408 34.7861 50.1878 35.6941 47.3236 35.6941C44.3995 35.6941 42.1225 34.7801 40.4927 32.9523C38.8749 31.1126 38.0659 28.6715 38.0659 25.6292ZM42.7397 25.6292C42.7397 29.886 44.2676 32.0144 47.3236 32.0144C48.7258 32.0144 49.8342 31.4613 50.6492 30.355C51.4761 29.2487 51.8895 27.6735 51.8895 25.6292C51.8895 21.4326 50.3675 19.3342 47.3236 19.3342C45.9215 19.3342 44.8069 19.8874 43.98 20.9937C43.1532 22.1 42.7397 23.6451 42.7397 25.6292ZM68.1579 35.6941H66.54L57.8396 16.0154H62.765L67.3669 27.8118L72.3103 16.0154H77.0739L68.1579 35.6941ZM84.2642 8.52998C84.9835 8.52998 85.5949 8.78851 86.0983 9.30558C86.613 9.81062 86.8708 10.4238 86.8708 11.1453C86.8708 11.8668 86.613 12.4861 86.0983 13.0032C85.5949 13.5082 84.9835 13.7607 84.2642 13.7607C83.5457 13.7607 82.9284 13.5082 82.4129 13.0032C81.9094 12.4861 81.6577 11.8668 81.6577 11.1453C81.6577 10.4238 81.9094 9.81062 82.4129 9.30558C82.9284 8.78851 83.5457 8.52998 84.2642 8.52998ZM81.9454 35.3333V19.7131H79.4827V16.0154H86.4932V35.3333H81.9454ZM94.9242 34.2691L93.9172 35.6941H91.3834V8.81851L95.8772 7.73633V16.7549C97.0752 16.0214 98.3819 15.6547 99.7957 15.6547C102.612 15.6547 104.883 16.5505 106.608 18.3422C108.335 20.1219 109.197 22.4066 109.197 25.1964C109.197 28.431 108.329 30.9923 106.59 32.8802C104.853 34.7561 102.498 35.6941 99.526 35.6941C97.7405 35.6941 96.2069 35.219 94.9242 34.2691ZM95.8772 20.6149V30.6977C96.5358 31.4793 97.4289 31.8702 98.5557 31.8702C100.725 31.8702 102.258 31.3531 103.157 30.3189C104.068 29.2848 104.523 27.6314 104.523 25.3587C104.523 21.4386 102.654 19.4785 98.9153 19.4785C97.5847 19.4785 96.5718 19.8573 95.8772 20.6149ZM130.355 27.0542H116.604C116.687 28.5934 117.214 29.7898 118.185 30.6436C119.156 31.4974 120.462 31.9242 122.104 31.9242C124.154 31.9242 125.711 31.3892 126.778 30.3189L128.522 33.764C126.939 35.0507 124.579 35.6941 121.439 35.6941C118.503 35.6941 116.178 34.8343 114.464 33.1147C112.763 31.3832 111.911 28.9721 111.911 25.8817C111.911 22.8395 112.846 20.3744 114.716 18.4865C116.598 16.5986 118.851 15.6547 121.475 15.6547C124.267 15.6547 126.509 16.4904 128.198 18.1619C129.888 19.8333 130.733 21.9617 130.733 24.5471C130.733 25.1001 130.607 25.9359 130.355 27.0542ZM116.765 23.6632H126.221C125.909 20.8373 124.351 19.4245 121.547 19.4245C118.983 19.4245 117.388 20.8373 116.765 23.6632Z" fill="#907CFF"/>
<mask id="mask0_7_1348" style="mask-type:luminance" maskUnits="userSpaceOnUse" x="15" y="12" width="12" height="12">
<path d="M26.0777 14.4566L17.2148 12.5923L15.3569 21.4853L24.2197 23.3496L26.0777 14.4566Z" fill="white"/>
</mask>
<g mask="url(#mask0_7_1348)">
<path d="M19.9958 21.436L19.5626 20.8342C18.0223 18.7038 17.0059 17.2947 17.2978 15.8977C17.537 14.7528 18.6173 14.0477 19.7547 14.287C20.3972 14.4221 20.9512 14.852 21.2554 15.4073C21.7562 15.0214 22.4357 14.8509 23.0782 14.9861C24.2156 15.2254 24.9227 16.3064 24.6835 17.4513C24.3916 18.8483 22.8968 19.7291 20.6335 21.0595L19.9958 21.436Z" fill="#FF4D9C"/>
</g>
<mask id="mask1_7_1348" style="mask-type:luminance" maskUnits="userSpaceOnUse" x="25" y="15" width="11" height="12">
<path d="M35.8177 17.8392L26.9548 15.9749L25.0968 24.8679L33.9597 26.7322L35.8177 17.8392Z" fill="white"/>
</mask>
<g mask="url(#mask1_7_1348)">
<path d="M29.7356 24.8171L29.3023 24.2153C27.762 22.0849 26.7456 20.6758 27.0375 19.2789C27.2768 18.1339 28.357 17.4289 29.4944 17.6681C30.1369 17.8033 30.6909 18.2332 30.9952 18.7884C31.496 18.4025 32.1754 18.232 32.818 18.3672C33.9554 18.6065 34.6625 19.6875 34.4233 20.8324C34.1314 22.2294 32.6366 23.1102 30.3732 24.4406L29.7356 24.8171Z" fill="#00F0C7"/>
</g>
<path d="M3.19946 8.81858L7.69352 7.73633V29.4531C7.69352 31.8341 8.40056 33.253 9.81465 33.7099C9.1196 35.0326 7.9332 35.6941 6.2554 35.6941C4.21811 35.6941 3.19946 34.2751 3.19946 31.4372V8.81858Z" fill="#907CFF"/>
<path fill-rule="evenodd" clip-rule="evenodd" d="M28.1917 33.7525C30.3721 32.5186 31.9748 30.4662 32.647 28.0467L29.1293 27.0626C28.7172 28.546 27.7347 29.8043 26.3978 30.5608C25.0611 31.3173 23.4795 31.5099 22.0011 31.0963C20.5228 30.6827 19.2687 29.6968 18.5148 28.3555C17.761 27.0141 17.5689 25.4272 17.9812 23.9439L14.4635 22.9597C13.7912 25.3792 14.1043 27.9676 15.334 30.1555C15.871 31.111 16.5637 31.956 17.3745 32.6608L17.4479 32.8217L19.2818 36.8411L23.3512 34.9717C25.0303 35.0081 26.704 34.5943 28.1917 33.7525Z" fill="#907CFF"/>
<path d="M32.6457 28.0469L32.7141 28.0661L32.7332 27.9975L32.6648 27.9784L32.6457 28.0469ZM29.128 27.0629L29.1471 26.9943L29.0787 26.9751L29.0597 27.0438L29.128 27.0629ZM17.9799 23.9441L18.0482 23.9632L18.0672 23.8947L17.9989 23.8755L17.9799 23.9441ZM14.4622 22.96L14.4812 22.8914L14.4129 22.8723L14.3938 22.9409L14.4622 22.96ZM17.3732 32.6611L17.4378 32.6315L17.4314 32.6174L17.4197 32.6073L17.3732 32.6611ZM19.2805 36.8413L19.216 36.8709L19.2456 36.9357L19.3101 36.9061L19.2805 36.8413ZM23.3499 34.972L23.3514 34.9008L23.3351 34.9004L23.3203 34.9072L23.3499 34.972ZM32.5774 28.0278C31.9101 30.4291 30.3195 32.4662 28.1555 33.6907L28.2252 33.8148C30.4221 32.5716 32.0368 30.5038 32.7141 28.0661L32.5774 28.0278ZM29.109 27.1315L32.6267 28.1156L32.6648 27.9784L29.1471 26.9943L29.109 27.1315ZM26.4313 30.623C27.7846 29.8573 28.7792 28.5835 29.1964 27.082L29.0597 27.0438C28.6526 28.5089 27.682 29.7518 26.3617 30.499L26.4313 30.623ZM21.9808 31.1651C23.4772 31.5838 25.0782 31.3888 26.4313 30.623L26.3617 30.499C25.0412 31.2462 23.4791 31.4365 22.0189 31.0279L21.9808 31.1651ZM18.4517 28.3907C19.2149 29.7485 20.4843 30.7465 21.9808 31.1651L22.0189 31.0279C20.5587 30.6194 19.32 29.6456 18.5753 28.3207L18.4517 28.3907ZM17.9115 23.9249C17.4942 25.4265 17.6886 27.0329 18.4517 28.3907L18.5753 28.3207C17.8307 26.9959 17.6411 25.4284 18.0482 23.9632L17.9115 23.9249ZM14.4431 23.0286L17.9608 24.0127L17.9989 23.8755L14.4812 22.8914L14.4431 23.0286ZM15.3945 30.1207C14.1741 27.9493 13.8633 25.3804 14.5305 22.9791L14.3938 22.9409C13.7165 25.3786 14.032 27.9864 15.2709 30.1907L15.3945 30.1207ZM17.4197 32.6073C16.615 31.9077 15.9275 31.0691 15.3945 30.1207L15.2709 30.1907C15.812 31.1534 16.5099 32.0047 17.3268 32.7149L17.4197 32.6073ZM17.5111 32.7924L17.4378 32.6315L17.3087 32.6908L17.3821 32.8517L17.5111 32.7924ZM19.3451 36.8116L17.5111 32.7924L17.3821 32.8517L19.216 36.8709L19.3451 36.8116ZM23.3203 34.9072L19.251 36.7765L19.3101 36.9061L23.3794 35.0367L23.3203 34.9072ZM28.1555 33.6907C26.679 34.5262 25.0179 34.9369 23.3514 34.9008L23.3483 35.0432C25.0401 35.0798 26.7263 34.663 28.2252 33.8148L28.1555 33.6907Z" fill="#907CFF"/>
</svg>
