<svg width="160" height="55" viewBox="0 0 160 55" fill="none" xmlns="http://www.w3.org/2000/svg">
<path d="M45.927 30.8177C45.927 27.2753 46.9464 24.3906 48.9851 22.164C51.0382 19.9373 53.7421 18.824 57.0965 18.824C60.6246 18.824 63.3646 19.8939 65.3165 22.0339C67.2685 24.1738 68.2445 27.1017 68.2445 30.8177C68.2445 34.5192 67.2468 37.4616 65.2515 39.6449C63.2706 41.8282 60.5523 42.9199 57.0965 42.9199C53.5686 42.9199 50.8214 41.821 48.8549 39.6232C46.903 37.411 45.927 34.4758 45.927 30.8177ZM51.566 30.8177C51.566 35.9361 53.4095 38.4954 57.0965 38.4954C58.7883 38.4954 60.1257 37.8303 61.1089 36.5001C62.1066 35.1699 62.6054 33.2757 62.6054 30.8177C62.6054 25.7715 60.7691 23.2484 57.0965 23.2484C55.4049 23.2484 54.0602 23.9135 53.0625 25.2438C52.0649 26.574 51.566 28.432 51.566 30.8177ZM82.2335 42.9199H80.2815L69.7844 19.2577H75.727L81.2792 33.442L87.2435 19.2577H92.9909L82.2335 42.9199ZM101.666 10.257C102.534 10.257 103.272 10.5679 103.879 11.1896C104.5 11.7969 104.811 12.5343 104.811 13.4018C104.811 14.2693 104.5 15.014 103.879 15.6358C103.272 16.243 102.534 16.5467 101.666 16.5467C100.799 16.5467 100.054 16.243 99.4325 15.6358C98.825 15.014 98.5213 14.2693 98.5213 13.4018C98.5213 12.5343 98.825 11.7969 99.4325 11.1896C100.054 10.5679 100.799 10.257 101.666 10.257ZM98.8684 42.4861V23.7039H95.8971V19.2577H104.355V42.4861H98.8684ZM114.528 41.2065L113.313 42.9199H110.256V10.604L115.677 9.30273V20.1469C117.123 19.2649 118.699 18.824 120.405 18.824C123.803 18.824 126.543 19.9012 128.625 22.0555C130.707 24.1955 131.748 26.9427 131.748 30.2972C131.748 34.1866 130.7 37.2664 128.603 39.5365C126.507 41.792 123.666 42.9199 120.08 42.9199C117.926 42.9199 116.075 42.3487 114.528 41.2065ZM115.677 24.7883V36.9121C116.472 37.852 117.55 38.3219 118.909 38.3219C121.526 38.3219 123.376 37.7002 124.461 36.4567C125.559 35.2132 126.109 33.2251 126.109 30.4923C126.109 25.7788 123.854 23.4219 119.343 23.4219C117.738 23.4219 116.515 23.8774 115.677 24.7883ZM157.276 32.5311H140.684C140.785 34.3819 141.421 35.8205 142.593 36.8471C143.764 37.8737 145.34 38.3869 147.32 38.3869C149.794 38.3869 151.673 37.7436 152.96 36.4567L155.064 40.5992C153.154 42.1463 150.306 42.9199 146.519 42.9199C142.976 42.9199 140.171 41.8861 138.103 39.8184C136.05 37.7364 135.023 34.8373 135.023 31.1213C135.023 27.4632 136.151 24.4991 138.406 22.229C140.677 19.959 143.395 18.824 146.562 18.824C149.93 18.824 152.635 19.8288 154.673 21.8387C156.712 23.8485 157.731 26.4077 157.731 29.5164C157.731 30.1815 157.579 31.1864 157.276 32.5311ZM140.879 28.4537H152.288C151.912 25.0558 150.031 23.3569 146.649 23.3569C143.554 23.3569 141.631 25.0558 140.879 28.4537Z" fill="url(#paint0_linear_1_909)"/>
<mask id="mask0_1_909" style="mask-type:luminance" maskUnits="userSpaceOnUse" x="18" y="15" width="14" height="14">
<path d="M31.4647 17.3823L20.7715 15.1406L18.5298 25.8338L29.223 28.0755L31.4647 17.3823Z" fill="white"/>
</mask>
<g mask="url(#mask0_1_909)">
<path d="M24.1241 25.7749L23.6014 25.0513C21.743 22.4896 20.5167 20.7952 20.8689 19.1155C21.1575 17.7388 22.4609 16.8911 23.8332 17.1788C24.6084 17.3412 25.2768 17.8581 25.6439 18.5258C26.2481 18.0618 27.0679 17.8568 27.8431 18.0194C29.2154 18.3071 30.0685 19.6069 29.7799 20.9836C29.4277 22.6634 27.6243 23.7225 24.8935 25.3222L24.1241 25.7749Z" fill="#FF4D9C"/>
</g>
<mask id="mask1_1_909" style="mask-type:luminance" maskUnits="userSpaceOnUse" x="30" y="19" width="14" height="14">
<path d="M43.2152 21.4502L32.522 19.2085L30.2803 29.9017L40.9735 32.1434L43.2152 21.4502Z" fill="white"/>
</mask>
<g mask="url(#mask1_1_909)">
<path d="M35.8746 29.8418L35.3519 29.1182C33.4935 26.5565 32.2672 24.8622 32.6194 23.1825C32.908 21.8057 34.2114 20.958 35.5836 21.2457C36.3589 21.4082 37.0273 21.9251 37.3944 22.5928C37.9986 22.1287 38.8184 21.9237 39.5936 22.0863C40.9659 22.374 41.819 23.6738 41.5304 25.0505C41.1782 26.7302 39.3747 27.7894 36.644 29.3891L35.8746 29.8418Z" fill="#00F0C7"/>
</g>
<path d="M3.86133 10.6041L9.28349 9.30273V35.4156C9.28349 38.2786 10.1366 39.9847 11.8427 40.5341C11.0041 42.1246 9.57267 42.9199 7.54837 42.9199C5.09034 42.9199 3.86133 41.2137 3.86133 37.8014V10.6041Z" fill="url(#paint1_linear_1_909)"/>
<path fill-rule="evenodd" clip-rule="evenodd" d="M34.014 40.5852C36.6447 39.1015 38.5783 36.6337 39.3894 33.7244L35.1453 32.5411C34.648 34.3248 33.4626 35.8378 31.8496 36.7474C30.2368 37.657 28.3286 37.8886 26.5449 37.3913C24.7614 36.894 23.2482 35.7085 22.3387 34.0957C21.4291 32.4828 21.1974 30.5746 21.6948 28.791L17.4506 27.6077C16.6395 30.517 17.0173 33.6293 18.5009 36.2601C19.1489 37.409 19.9846 38.425 20.9628 39.2726L21.0514 39.466L23.264 44.299L28.1738 42.0512C30.1997 42.095 32.219 41.5975 34.014 40.5852Z" fill="white"/>
<path d="M39.3884 33.7238L39.4708 33.7469L39.4939 33.6643L39.4113 33.6414L39.3884 33.7238ZM35.1442 32.5405L35.1673 32.4581L35.0847 32.435L35.0618 32.5176L35.1442 32.5405ZM21.6937 28.7905L21.7762 28.8134L21.7991 28.731L21.7167 28.7079L21.6937 28.7905ZM17.4496 27.6071L17.4725 27.5247L17.3901 27.5017L17.3671 27.5841L17.4496 27.6071ZM20.9618 39.272L21.0397 39.2364L21.0319 39.2195L21.0179 39.2073L20.9618 39.272ZM23.263 44.2985L23.1852 44.3341L23.2209 44.4119L23.2987 44.3763L23.263 44.2985ZM28.1727 42.0507L28.1745 41.9651L28.1549 41.9646L28.137 41.9728L28.1727 42.0507ZM39.3059 33.7009C38.5009 36.5883 36.5818 39.0376 33.9709 40.5101L34.0549 40.6592C36.7055 39.1644 38.6536 36.678 39.4708 33.7469L39.3059 33.7009ZM35.1212 32.6231L39.3654 33.8063L39.4113 33.6414L35.1673 32.4581L35.1212 32.6231ZM31.8906 36.8214C33.5233 35.9007 34.7233 34.3691 35.2267 32.5636L35.0618 32.5176C34.5706 34.2793 33.3996 35.7738 31.8065 36.6722L31.8906 36.8214ZM26.5209 37.4732C28.3264 37.9766 30.258 37.7422 31.8906 36.8214L31.8065 36.6722C30.2134 37.5707 28.3287 37.7995 26.5669 37.3083L26.5209 37.4732ZM22.263 34.1372C23.1838 35.7698 24.7154 36.9698 26.5209 37.4732L26.5669 37.3083C24.8051 36.8171 23.3106 35.6462 22.4122 34.053L22.263 34.1372ZM21.6112 28.7674C21.1078 30.573 21.3423 32.5046 22.263 34.1372L22.4122 34.053C21.5137 32.46 21.285 30.5752 21.7762 28.8134L21.6112 28.7674ZM17.4266 27.6896L21.6707 28.8729L21.7167 28.7079L17.4725 27.5247L17.4266 27.6896ZM18.5744 36.2174C17.102 33.6065 16.727 30.5175 17.532 27.6302L17.3671 27.5841C16.5499 30.5153 16.9305 33.651 18.4253 36.3015L18.5744 36.2174ZM21.0179 39.2073C20.047 38.3661 19.2175 37.3577 18.5744 36.2174L18.4253 36.3015C19.0781 37.4591 19.9202 38.4828 20.9057 39.3367L21.0179 39.2073ZM21.1282 39.4298L21.0397 39.2364L20.884 39.3077L20.9725 39.5012L21.1282 39.4298ZM23.3409 44.2627L21.1282 39.4298L20.9725 39.5012L23.1852 44.3341L23.3409 44.2627ZM28.137 41.9728L23.2274 44.2205L23.2987 44.3763L28.2083 42.1285L28.137 41.9728ZM33.9709 40.5101C32.1894 41.5147 30.1853 42.0085 28.1745 41.9651L28.1708 42.1363C30.212 42.1803 32.2465 41.6792 34.0549 40.6592L33.9709 40.5101Z" fill="white"/>
<defs>
<linearGradient id="paint0_linear_1_909" x1="101.918" y1="0.000225368" x2="101.918" y2="53.3336" gradientUnits="userSpaceOnUse">
<stop stop-color="#725EE1"/>
<stop offset="1" stop-color="#907CFF"/>
</linearGradient>
<linearGradient id="paint1_linear_1_909" x1="6.78044" y1="0.000225368" x2="6.78044" y2="53.3336" gradientUnits="userSpaceOnUse">
<stop stop-color="#725EE1"/>
<stop offset="1" stop-color="#9384E6"/>
</linearGradient>
</defs>
</svg>
