<svg width="48" height="48" viewBox="0 0 48 48" fill="none" xmlns="http://www.w3.org/2000/svg">
<g clip-path="url(#clip0_23_600)">
<g opacity="0.53" filter="url(#filter0_f_23_600)">
<path d="M45.3927 24.8072C45.3927 27.5114 44.8395 30.1891 43.7648 32.6875C42.6902 35.1859 41.115 37.456 39.1292 39.3681C37.1434 41.2803 34.786 42.7971 32.1915 43.832C29.5969 44.8668 26.8162 45.3995 24.0079 45.3995C21.1996 45.3995 18.4188 44.8668 15.8242 43.832C13.2297 42.7971 10.8723 41.2803 8.88651 39.3681C6.90075 37.456 5.32556 35.1859 4.25087 32.6875C3.17618 30.1891 2.62305 27.5114 2.62305 24.8072C2.62305 19.3457 4.87608 14.108 8.88651 10.2462C12.8969 6.38438 18.3363 4.21484 24.0079 4.21484C26.8162 4.21484 29.5969 4.74748 32.1915 5.78234C34.786 6.8172 37.1434 8.33402 39.1292 10.2462C41.115 12.1584 42.6902 14.4284 43.7648 16.9268C44.8395 19.4252 45.3927 22.1029 45.3927 24.8072Z" fill="black"/>
</g>
<path d="M46.2065 22.989C46.2065 25.9042 45.6323 28.7909 44.5167 31.4842C43.4011 34.1775 41.7659 36.6247 39.7046 38.686C37.6432 40.7474 35.196 42.3826 32.5027 43.4982C29.8094 44.6138 26.9227 45.188 24.0075 45.188C18.12 45.188 12.4736 42.8491 8.31051 38.686C4.1474 34.5229 1.80859 28.8765 1.80859 22.989C1.80859 17.1015 4.1474 11.4551 8.31051 7.29197C12.4736 3.12886 18.12 0.790041 24.0075 0.790039C26.9227 0.790039 29.8094 1.36423 32.5027 2.47984C35.196 3.59544 37.6432 5.2306 39.7046 7.29197C41.7659 9.35333 43.4011 11.8005 44.5167 14.4938C45.6323 17.1871 46.2065 20.0738 46.2065 22.989Z" fill="url(#paint0_linear_23_600)" stroke="#CDCDCD" stroke-width="0.0659143" stroke-linecap="round" stroke-linejoin="round"/>
<path d="M44.4663 22.989C44.4663 28.4152 42.3107 33.6191 38.4739 37.456C34.637 41.2929 29.433 43.4485 24.0068 43.4485C18.5806 43.4485 13.3767 41.2929 9.5398 37.456C5.70291 33.6191 3.54736 28.4152 3.54736 22.989C3.54736 17.5628 5.70291 12.3589 9.5398 8.52198C13.3767 4.68508 18.5806 2.52954 24.0068 2.52954C29.433 2.52954 34.637 4.68508 38.4739 8.52198C42.3107 12.3589 44.4663 17.5628 44.4663 22.989Z" fill="url(#paint1_radial_23_600)"/>
<path d="M24.0071 3.59644C23.8418 3.59644 23.7088 3.72947 23.7088 3.89473V7.3354C23.7088 7.50066 23.8418 7.63369 24.0071 7.63369C24.1723 7.63369 24.3054 7.50066 24.3054 7.3354V3.89473C24.3054 3.72947 24.1723 3.59644 24.0071 3.59644ZM22.0557 3.71977C22.0359 3.71765 22.0155 3.71765 21.995 3.72002C21.8306 3.73717 21.7121 3.88329 21.7293 4.04766L21.8796 5.48709C21.8968 5.65145 22.0429 5.76997 22.2073 5.75281C22.3717 5.73566 22.4902 5.58953 22.473 5.42517L22.3228 3.98575C22.3077 3.84192 22.194 3.7332 22.0557 3.71977ZM25.9721 3.72119C25.8338 3.73451 25.72 3.84323 25.7049 3.98703L25.5535 5.42633C25.5362 5.59069 25.6547 5.73695 25.8191 5.75423C25.9834 5.77152 26.1296 5.65312 26.1468 5.48877L26.2982 4.04934C26.3155 3.88499 26.197 3.73885 26.0326 3.72157C26.0121 3.71945 25.9919 3.71943 25.9721 3.72119ZM20.0511 4.01046C20.0312 4.01062 20.011 4.01259 19.9908 4.01684C19.8292 4.05107 19.7265 4.20881 19.7608 4.37049L20.4733 7.73649C20.5076 7.89817 20.6653 8.00077 20.827 7.96655C20.9886 7.93232 21.0913 7.7747 21.057 7.61303L20.3445 4.2469C20.3145 4.10543 20.19 4.00938 20.0511 4.01046ZM27.9766 4.0133C27.8376 4.01188 27.7131 4.10822 27.6831 4.24966L26.9681 7.61527C26.9337 7.77692 27.0362 7.93471 27.1979 7.96905C27.3595 8.00342 27.5173 7.90087 27.5516 7.73924L28.2667 4.37362C28.301 4.21198 28.1985 4.05419 28.0369 4.01985C28.0167 4.0156 27.9964 4.0133 27.9766 4.0133ZM18.138 4.54988C18.0994 4.54633 18.0595 4.55058 18.0202 4.56362C17.863 4.61472 17.7776 4.78225 17.8286 4.93941L18.2759 6.31589C18.327 6.47306 18.4946 6.55852 18.6518 6.50745C18.809 6.45636 18.8943 6.2887 18.8432 6.13154L18.396 4.75506C18.3577 4.63718 18.2538 4.55973 18.138 4.54988ZM29.8788 4.55058C29.763 4.56044 29.6592 4.63792 29.6209 4.75579L29.1734 6.13214C29.1223 6.2893 29.2077 6.45697 29.3648 6.50806C29.522 6.55915 29.6896 6.47376 29.7407 6.31663L30.1882 4.94015C30.2393 4.78298 30.1539 4.61532 29.9968 4.56423C29.9575 4.55148 29.9175 4.54732 29.8788 4.55058ZM16.2462 5.24217C16.2074 5.24288 16.1682 5.25138 16.1304 5.26818C15.9795 5.33529 15.9119 5.51085 15.979 5.66186L17.3765 8.80592C17.4436 8.95692 17.6192 9.02444 17.7702 8.95732C17.9211 8.89021 17.9888 8.71464 17.9217 8.56364L16.5241 5.41957C16.4738 5.30631 16.3624 5.23991 16.2462 5.24217ZM31.792 5.25273C31.6758 5.2506 31.5643 5.31658 31.5138 5.42974L30.1121 8.57188C30.0448 8.72279 30.1121 8.89849 30.263 8.96582C30.4139 9.03314 30.5896 8.96585 30.657 8.81493L32.0587 5.67281C32.126 5.52188 32.0587 5.34619 31.9078 5.27886C31.8701 5.26207 31.8308 5.25358 31.792 5.25273ZM14.4902 6.17128C14.4329 6.16703 14.3739 6.17978 14.3203 6.21082C14.1771 6.29345 14.1285 6.47517 14.2111 6.61828L14.9347 7.87168C15.0174 8.01481 15.1991 8.06348 15.3422 7.98085C15.4853 7.89822 15.534 7.71652 15.4514 7.57339L14.7277 6.32C14.676 6.23054 14.5856 6.17796 14.4902 6.17128ZM33.524 6.17128C33.4285 6.17766 33.3382 6.23052 33.2866 6.31998L32.5628 7.57337C32.4802 7.71649 32.529 7.8982 32.6721 7.98083C32.8152 8.06346 32.9969 8.01478 33.0796 7.87166L33.8032 6.61826C33.8858 6.47515 33.8371 6.29343 33.694 6.2108C33.6404 6.17983 33.5812 6.16731 33.524 6.17128ZM12.785 7.23479C12.7276 7.23692 12.6702 7.25534 12.62 7.29169C12.4862 7.38873 12.4567 7.57453 12.5537 7.7083L14.574 10.4933C14.6711 10.6271 14.857 10.6566 14.9908 10.5596C15.1245 10.4626 15.1541 10.2768 15.057 10.143L13.0366 7.35803C12.9759 7.27442 12.8807 7.23152 12.785 7.23479ZM35.2505 7.24995C35.1549 7.24641 35.0596 7.28928 34.9988 7.37277L32.9746 10.1551C32.8774 10.2887 32.9067 10.4746 33.0404 10.5718C33.174 10.669 33.3599 10.6398 33.4571 10.5062L35.4812 7.72388C35.5784 7.59024 35.549 7.40437 35.4154 7.30715C35.3653 7.27073 35.3078 7.25201 35.2505 7.24995ZM11.2609 8.51301C11.1848 8.50876 11.1071 8.5342 11.0456 8.58948C10.9228 8.70005 10.9129 8.88789 11.0235 9.01072L11.9919 10.0865C12.1025 10.2093 12.2903 10.2192 12.4131 10.1086C12.536 9.998 12.5458 9.81003 12.4353 9.6872L11.467 8.61159C11.4117 8.55015 11.337 8.51701 11.2609 8.51301ZM36.7554 8.51513C36.6793 8.51939 36.6046 8.55234 36.5493 8.61375L35.581 9.68923C35.4704 9.81204 35.4802 10 35.603 10.1106C35.7258 10.2212 35.9136 10.2113 36.0242 10.0885L36.9927 9.01301C37.1033 8.89019 37.0934 8.70221 36.9706 8.59164C36.9092 8.53637 36.8316 8.51114 36.7554 8.51513ZM9.8001 9.91619C9.72396 9.92045 9.6494 9.9534 9.59412 10.0148C9.48355 10.1376 9.49344 10.3255 9.61623 10.436L12.1734 12.738C12.2962 12.8486 12.484 12.8387 12.5946 12.7159C12.7052 12.5931 12.6954 12.4052 12.5726 12.2947L10.0153 9.9927C9.95385 9.93743 9.87626 9.91219 9.8001 9.91619ZM38.2233 9.92626C38.1472 9.922 38.0694 9.94737 38.0079 10.0026L35.4492 12.3028C35.3264 12.4133 35.3162 12.6011 35.4267 12.724C35.5372 12.8469 35.7252 12.8569 35.8481 12.7464L38.4069 10.4462C38.5298 10.3358 38.5398 10.1479 38.4293 10.025C38.374 9.96355 38.2995 9.93031 38.2233 9.92626ZM8.58532 11.4782C8.4897 11.4747 8.39434 11.5178 8.33364 11.6013C8.2365 11.735 8.26596 11.9207 8.39969 12.0179L9.57057 12.8686C9.70426 12.9657 9.89002 12.9364 9.98716 12.8027C10.0843 12.669 10.0549 12.4831 9.92126 12.386L8.75038 11.5353C8.70027 11.4988 8.6427 11.4803 8.58532 11.4782ZM39.4369 11.4891C39.3795 11.4912 39.3221 11.5095 39.2719 11.546L38.1005 12.3959C37.9667 12.4929 37.9372 12.6789 38.0342 12.8126C38.1312 12.9464 38.317 12.9758 38.4508 12.8788L39.6223 12.0289C39.7561 11.9318 39.7855 11.746 39.6885 11.6123C39.6278 11.5287 39.5326 11.4858 39.4369 11.4891ZM7.4501 13.1444C7.35465 13.1508 7.26436 13.2036 7.21271 13.2931C7.13008 13.4362 7.17876 13.6179 7.32188 13.7005L10.3015 15.4209C10.4447 15.5035 10.6264 15.4548 10.709 15.3117C10.7916 15.1686 10.7429 14.9869 10.5998 14.9042L7.62017 13.1839C7.56652 13.1529 7.50737 13.1404 7.4501 13.1444ZM40.564 13.1444C40.5068 13.1401 40.4476 13.1529 40.394 13.1839L37.4143 14.9043C37.2712 14.9869 37.2225 15.1686 37.3051 15.3117C37.3878 15.4548 37.5695 15.5035 37.7126 15.4209L40.6924 13.7006C40.8355 13.6179 40.8842 13.4362 40.8016 13.2931C40.7499 13.2037 40.6595 13.151 40.564 13.1444ZM6.5918 14.9203C6.47556 14.9175 6.36409 14.984 6.31359 15.0972C6.24627 15.2481 6.31355 15.4238 6.46448 15.4912L7.78636 16.0808C7.93729 16.1481 8.11299 16.0808 8.18031 15.9299C8.24763 15.779 8.18022 15.6033 8.0293 15.536L6.70754 14.9463C6.66984 14.9295 6.63054 14.9211 6.5918 14.9203ZM41.4281 14.9326C41.3894 14.9333 41.35 14.9418 41.3123 14.9586L39.9901 15.5472C39.8392 15.6144 39.7716 15.79 39.8389 15.941C39.9061 16.092 40.0818 16.1595 40.2328 16.0923L41.555 15.5035C41.7059 15.4364 41.7733 15.2607 41.7061 15.1097C41.6557 14.9965 41.5444 14.9303 41.4281 14.9326ZM5.82684 16.7765C5.71098 16.7862 5.60711 16.8636 5.56871 16.9815C5.51755 17.1386 5.60273 17.3063 5.75989 17.3575L9.03128 18.4235C9.18839 18.4746 9.35612 18.3894 9.40732 18.2323C9.45848 18.0752 9.3733 17.9074 9.21614 17.8562L5.94476 16.7903C5.9055 16.7775 5.86545 16.7733 5.82684 16.7765ZM42.1917 16.7893C42.1531 16.7857 42.1132 16.79 42.0739 16.803L38.8017 17.8667C38.6446 17.9178 38.5592 18.0854 38.6103 18.2426C38.6614 18.3997 38.8291 18.4851 38.9862 18.434L42.2582 17.3704C42.4154 17.3193 42.5009 17.1516 42.4498 16.9945C42.4115 16.8766 42.3075 16.7991 42.1917 16.7893ZM5.35025 18.725C5.21128 18.7236 5.08665 18.82 5.05659 18.9615C5.02222 19.1231 5.12476 19.2809 5.28639 19.3153L6.70213 19.6161C6.86378 19.6505 7.02154 19.548 7.0559 19.3863C7.09027 19.2247 6.98773 19.0669 6.8261 19.0325L5.41049 18.7317C5.39029 18.7274 5.37009 18.725 5.35025 18.725ZM42.6646 18.7278C42.6447 18.728 42.6247 18.7307 42.6045 18.7342L41.1887 19.0349C41.0271 19.0693 40.9246 19.2269 40.9589 19.3886C40.9933 19.5502 41.151 19.6529 41.3127 19.6185L42.7283 19.3178C42.8899 19.2834 42.9926 19.1257 42.9582 18.964C42.9282 18.8226 42.8035 18.7267 42.6646 18.7278ZM4.98952 20.6849C4.85119 20.6982 4.73733 20.8067 4.72213 20.9505C4.70477 21.1148 4.82299 21.2612 4.98733 21.2785L8.40895 21.6403C8.57329 21.6577 8.71961 21.5393 8.73698 21.375C8.75434 21.2106 8.63599 21.0643 8.47165 21.0469L5.05003 20.6852C5.02948 20.6831 5.00929 20.683 4.98952 20.6849ZM43.0278 20.7106C43.0081 20.7085 42.9877 20.7085 42.9672 20.7109L39.5452 21.068C39.3808 21.0852 39.2623 21.2313 39.2795 21.3957C39.2966 21.56 39.4427 21.6785 39.6071 21.6614L43.0291 21.3042C43.1935 21.2871 43.312 21.141 43.2948 20.9766C43.2798 20.8328 43.1662 20.7241 43.0278 20.7106ZM4.93158 22.6912C4.76632 22.6912 4.6333 22.8242 4.6333 22.9895C4.6333 23.1547 4.76632 23.2877 4.93158 23.2877H6.37887C6.54412 23.2877 6.67729 23.1547 6.67729 22.9895C6.67729 22.8242 6.54412 22.6912 6.37887 22.6912H4.93158ZM41.6353 22.6912C41.47 22.6912 41.337 22.8242 41.337 22.9895C41.337 23.1547 41.47 23.2877 41.6353 23.2877H43.0826C43.2478 23.2877 43.3809 23.1547 43.3809 22.9895C43.3809 22.8242 43.2478 22.6912 43.0826 22.6912H41.6353ZM8.46766 24.3173C8.44788 24.3151 8.42769 24.3151 8.40714 24.3175L4.985 24.6746C4.82063 24.6918 4.70215 24.8379 4.71928 25.0023C4.73643 25.1666 4.88256 25.2852 5.04692 25.268L8.46906 24.9109C8.63343 24.8937 8.75191 24.7476 8.73477 24.5832C8.71975 24.4394 8.60597 24.3307 8.46766 24.3173ZM39.5447 24.3384C39.4064 24.3516 39.2925 24.4602 39.2773 24.604C39.2599 24.7683 39.3782 24.9146 39.5425 24.932L42.9641 25.2938C43.1285 25.3111 43.2748 25.1928 43.2921 25.0284C43.3095 24.8641 43.1912 24.7178 43.0268 24.7004L39.6053 24.3386C39.5848 24.3365 39.5645 24.3365 39.5447 24.3384ZM6.76187 26.3535C6.74202 26.3537 6.72183 26.3557 6.70163 26.3599L5.28589 26.6606C5.12423 26.695 5.02176 26.8528 5.05609 27.0144C5.09046 27.1761 5.24821 27.2785 5.40987 27.2442L6.82561 26.9436C6.98725 26.9092 7.08973 26.7515 7.0554 26.5898C7.02535 26.4484 6.90083 26.3524 6.76187 26.3535ZM41.2519 26.3564C41.1129 26.355 40.9884 26.4513 40.9584 26.5927C40.924 26.7544 41.0264 26.9122 41.188 26.9465L42.6038 27.2474C42.7654 27.2817 42.9232 27.1793 42.9576 27.0177C42.9919 26.8561 42.8894 26.6981 42.7278 26.6638L41.3121 26.3629C41.2919 26.3587 41.2717 26.3564 41.2519 26.3564ZM9.14584 27.5312C9.10722 27.5277 9.06735 27.5319 9.02805 27.545L5.75591 28.6086C5.59874 28.6597 5.51338 28.8274 5.56447 28.9845C5.61556 29.1417 5.78322 29.2271 5.94038 29.176L9.21241 28.1123C9.36958 28.0612 9.45506 27.8936 9.40397 27.7364C9.36564 27.6185 9.2617 27.5411 9.14584 27.5312ZM38.8651 27.5418C38.7492 27.5515 38.6454 27.6289 38.607 27.7468C38.5558 27.9039 38.641 28.0716 38.7981 28.1228L42.0695 29.1888C42.2266 29.2399 42.3944 29.1547 42.4456 28.9976C42.4968 28.8405 42.4115 28.6727 42.2544 28.6215L38.983 27.5556C38.9437 27.5427 38.9037 27.5385 38.8651 27.5418ZM7.89721 29.8609C7.85845 29.8616 7.81922 29.87 7.78147 29.8868L6.4592 30.4755C6.30823 30.5427 6.24085 30.7183 6.30806 30.8693C6.37531 31.0203 6.5509 31.0876 6.70187 31.0204L8.02415 30.4318C8.17512 30.3647 8.2425 30.189 8.17529 30.038C8.1249 29.9248 8.01345 29.8586 7.89721 29.8609ZM40.1122 29.8722C39.9959 29.8694 39.8845 29.9359 39.834 30.0491C39.7666 30.2001 39.8339 30.3757 39.9848 30.4431L41.3066 31.0327C41.4575 31.1 41.6332 31.0327 41.7006 30.8818C41.7679 30.7309 41.7006 30.5552 41.5497 30.4879L40.2279 29.8982C40.1902 29.8814 40.1509 29.873 40.1122 29.8722ZM10.4716 30.5186C10.4143 30.5144 10.3552 30.5271 10.3015 30.5582L7.32188 32.2785C7.17876 32.3611 7.13008 32.5429 7.21271 32.686C7.29534 32.8291 7.47705 32.8778 7.62017 32.7951L10.5998 31.0749C10.7429 30.9923 10.7916 30.8105 10.709 30.6673C10.6573 30.5779 10.5671 30.5253 10.4716 30.5186ZM37.5427 30.5186C37.4472 30.525 37.3568 30.5779 37.3051 30.6673C37.2225 30.8104 37.2712 30.9923 37.4143 31.0749L40.394 32.7951C40.5371 32.8777 40.7189 32.8291 40.8016 32.6859C40.8842 32.5428 40.8355 32.3611 40.6924 32.2785L37.7126 30.5582C37.659 30.5272 37.5999 30.5147 37.5427 30.5186ZM9.72839 33.0432C9.67099 33.0453 9.61351 33.0638 9.56335 33.1002L8.39196 33.9502C8.2582 34.0472 8.22861 34.233 8.32563 34.3668C8.42268 34.5005 8.60847 34.5301 8.74223 34.433L9.91374 33.5831C10.0475 33.4861 10.0771 33.3003 9.98007 33.1665C9.91941 33.0829 9.82402 33.0399 9.72839 33.0432ZM38.2787 33.0533C38.183 33.0497 38.0877 33.0928 38.027 33.1763C37.9298 33.31 37.9593 33.4959 38.093 33.5931L39.2639 34.4438C39.3976 34.5409 39.5834 34.5114 39.6805 34.3777C39.7777 34.244 39.7483 34.0583 39.6146 33.9611L38.4437 33.1104C38.3936 33.074 38.336 33.0553 38.2787 33.0533ZM12.3814 33.1563C12.3053 33.152 12.2276 33.1774 12.1662 33.2326L9.60738 35.5328C9.48449 35.6432 9.4745 35.8311 9.58499 35.954C9.69546 36.0769 9.88331 36.0869 10.0062 35.9764L12.565 33.6762C12.6879 33.5658 12.6979 33.3779 12.5874 33.255C12.5322 33.1936 12.4576 33.1603 12.3814 33.1563ZM35.6256 33.1645C35.5495 33.1687 35.4748 33.2017 35.4195 33.2631C35.3089 33.3859 35.3188 33.5738 35.4416 33.6843L37.9988 35.9863C38.1216 36.0969 38.3096 36.087 38.4201 35.9642C38.5307 35.8414 38.5208 35.6535 38.398 35.543L35.8407 33.241C35.7793 33.1857 35.7018 33.1605 35.6256 33.1645ZM14.8089 35.3497C14.7133 35.3461 14.6179 35.3889 14.5571 35.4725L12.5331 38.2548C12.4359 38.3884 12.4651 38.5743 12.5987 38.6715C12.7324 38.7688 12.9182 38.7395 13.0154 38.6058L15.0395 35.8235C15.1367 35.6899 15.1074 35.504 14.9739 35.4068C14.9238 35.3704 14.8663 35.3517 14.8089 35.3497ZM33.1886 35.3622C33.1312 35.3643 33.0737 35.3826 33.0236 35.4191C32.8898 35.5161 32.8602 35.7019 32.9572 35.8357L34.9775 38.6207C35.0746 38.7544 35.2603 38.784 35.3941 38.687C35.5279 38.59 35.5575 38.4042 35.4604 38.2704L33.4402 35.4854C33.3795 35.4018 33.2842 35.3589 33.1886 35.3622ZM12.1961 35.7919C12.1199 35.7961 12.0452 35.8291 11.99 35.8905L11.0216 36.966C10.911 37.0888 10.9208 37.2768 11.0436 37.3874C11.1664 37.4979 11.3543 37.488 11.4648 37.3652L12.4333 36.2897C12.5439 36.1669 12.534 35.9789 12.4112 35.8683C12.3498 35.8131 12.2722 35.7879 12.1961 35.7919ZM35.8163 35.7933C35.7401 35.7891 35.6626 35.8145 35.6012 35.8698C35.4783 35.9803 35.4685 36.1682 35.579 36.291L36.5472 37.3667C36.6578 37.4896 36.8456 37.4995 36.9685 37.3889C37.0913 37.2783 37.1012 37.0903 36.9906 36.9675L36.0223 35.8919C35.9671 35.8305 35.8924 35.7973 35.8163 35.7933ZM17.6354 36.9865C17.5192 36.9836 17.4078 37.0502 17.3573 37.1633L15.9555 40.3055C15.8882 40.4564 15.9555 40.6321 16.1064 40.6994C16.2573 40.7667 16.433 40.6995 16.5003 40.5485L17.9022 37.4064C17.9695 37.2555 17.9022 37.0798 17.7513 37.0125C17.7136 36.9956 17.6742 36.9872 17.6354 36.9865ZM30.3598 36.9951C30.3211 36.9958 30.2817 37.0042 30.244 37.021C30.093 37.0881 30.0254 37.2636 30.0926 37.4146L31.49 40.5587C31.5571 40.7096 31.7328 40.7772 31.8838 40.7101C32.0348 40.643 32.1023 40.4674 32.0352 40.3164L30.6378 37.1724C30.5874 37.0592 30.4761 36.9929 30.3598 36.9951ZM15.1721 37.9579C15.0767 37.9643 14.9864 38.0172 14.9347 38.1066L14.2111 39.36C14.1285 39.5031 14.1771 39.6849 14.3203 39.7675C14.4634 39.8501 14.6451 39.8014 14.7277 39.6583L15.4514 38.4049C15.534 38.2618 15.4853 38.0801 15.3422 37.9975C15.2885 37.9665 15.2294 37.954 15.1721 37.9579ZM32.842 37.9579C32.7848 37.9537 32.7258 37.9665 32.6721 37.9975C32.529 38.0801 32.4803 38.2618 32.5629 38.4049L33.2866 39.6583C33.3692 39.8015 33.5509 39.8501 33.694 39.7675C33.8371 39.6849 33.8858 39.5032 33.8032 39.3601L33.0796 38.1067C33.0279 38.0172 32.9375 37.9646 32.842 37.9579ZM20.7562 38.0029C20.6172 38.0014 20.4927 38.0978 20.4626 38.2392L19.7476 41.6049C19.7133 41.7665 19.8158 41.9243 19.9774 41.9586C20.1391 41.993 20.2969 41.8904 20.3312 41.7288L21.0462 38.3632C21.0806 38.2016 20.978 38.0438 20.8164 38.0094C20.7962 38.0052 20.776 38.0029 20.7562 38.0029ZM27.2474 38.005C27.2276 38.0051 27.2075 38.0071 27.1873 38.0114C27.0257 38.0456 26.923 38.2032 26.9573 38.3649L27.6698 41.731C27.7041 41.8927 27.8618 41.9953 28.0235 41.9611C28.1852 41.9269 28.2878 41.7691 28.2535 41.6074L27.5408 38.2415C27.5109 38.1001 27.3864 38.0039 27.2474 38.005ZM24.0071 38.3445C23.8418 38.3445 23.7088 38.4775 23.7088 38.6428V42.0834C23.7088 42.2487 23.8418 42.3817 24.0071 42.3817C24.1723 42.3817 24.3054 42.2487 24.3054 42.0834V38.6428C24.3054 38.4775 24.1723 38.3445 24.0071 38.3445ZM18.5315 39.4563C18.4157 39.4661 18.3117 39.5436 18.2734 39.6615L17.8261 41.038C17.775 41.1951 17.8604 41.3628 18.0175 41.4139C18.1747 41.465 18.3423 41.3794 18.3934 41.2223L18.8408 39.846C18.8919 39.6888 18.8065 39.5211 18.6493 39.47C18.6101 39.4573 18.5702 39.453 18.5315 39.4563ZM29.4803 39.457C29.4417 39.4534 29.4018 39.4577 29.3625 39.4707C29.2053 39.5217 29.1199 39.6894 29.1709 39.8466L29.6182 41.223C29.6692 41.3802 29.8369 41.4656 29.9941 41.4145C30.1512 41.3634 30.2367 41.1959 30.1856 41.0387L29.7383 39.6622C29.6999 39.5443 29.5961 39.4668 29.4803 39.457ZM22.1347 40.2236C21.9964 40.2369 21.8824 40.3455 21.8673 40.4893L21.716 41.9288C21.6987 42.0931 21.8171 42.2392 21.9815 42.2565C22.1459 42.2738 22.2921 42.1554 22.3094 41.9911L22.4607 40.5518C22.478 40.3874 22.3595 40.2412 22.1952 40.2239C22.1747 40.2217 22.1545 40.2217 22.1347 40.2236ZM25.8675 40.225C25.8477 40.2229 25.8274 40.2229 25.8068 40.2253C25.6425 40.2424 25.5239 40.3886 25.5411 40.5529L25.6915 41.9925C25.7086 42.1568 25.8547 42.2752 26.0191 42.2581C26.1835 42.2409 26.302 42.0948 26.2848 41.9304L26.1346 40.491C26.1196 40.3472 26.0058 40.2385 25.8675 40.225Z" fill="#F4F2F3"/>
<g opacity="0.409" filter="url(#filter1_f_23_600)">
<path d="M37.9872 11.0574L21.6673 20.5393L11.3486 36.7837L26.4439 25.6028L37.9872 11.0574Z" fill="black"/>
</g>
<path d="M26.3463 25.4383L21.6685 20.5395L38.2625 9.37671L26.3463 25.4383Z" fill="#FF5150"/>
<path d="M26.346 25.4383L21.6682 20.5396L9.75195 36.6012L26.346 25.4383Z" fill="#F1F1F1"/>
<path opacity="0.243" d="M9.75195 36.6012L26.346 25.4383L38.2623 9.37671L9.75195 36.6012Z" fill="black"/>
</g>
<defs>
<filter id="filter0_f_23_600" x="0.944261" y="2.53606" width="46.1271" height="44.5421" filterUnits="userSpaceOnUse" color-interpolation-filters="sRGB">
<feFlood flood-opacity="0" result="BackgroundImageFix"/>
<feBlend mode="normal" in="SourceGraphic" in2="BackgroundImageFix" result="shape"/>
<feGaussianBlur stdDeviation="0.839393" result="effect1_foregroundBlur_23_600"/>
</filter>
<filter id="filter1_f_23_600" x="10.8715" y="10.5802" width="27.593" height="26.6806" filterUnits="userSpaceOnUse" color-interpolation-filters="sRGB">
<feFlood flood-opacity="0" result="BackgroundImageFix"/>
<feBlend mode="normal" in="SourceGraphic" in2="BackgroundImageFix" result="shape"/>
<feGaussianBlur stdDeviation="0.238578" result="effect1_foregroundBlur_23_600"/>
</filter>
<linearGradient id="paint0_linear_23_600" x1="24.0067" y1="45.1875" x2="24.0067" y2="0.789923" gradientUnits="userSpaceOnUse">
<stop stop-color="#BDBDBD"/>
<stop offset="1" stop-color="white"/>
</linearGradient>
<radialGradient id="paint1_radial_23_600" cx="0" cy="0" r="1" gradientUnits="userSpaceOnUse" gradientTransform="translate(24.0991 20.0057) scale(22.1989 22.1989)">
<stop stop-color="#06C2E7"/>
<stop offset="0.25" stop-color="#0DB8EC"/>
<stop offset="0.5" stop-color="#12AEF1"/>
<stop offset="0.75" stop-color="#1F86F9"/>
<stop offset="1" stop-color="#107DDD"/>
</radialGradient>
<clipPath id="clip0_23_600">
<rect width="46.8892" height="46.6326" fill="white" transform="translate(0.5625 0.75)"/>
</clipPath>
</defs>
</svg>
